<?xml version="1.0" standalone="no"?>
<!DOCTYPE svg PUBLIC "-//W3C//DTD SVG 20010904//EN"
 "http://www.w3.org/TR/2001/REC-SVG-20010904/DTD/svg10.dtd">
<svg version="1.0" xmlns="http://www.w3.org/2000/svg"
 width="1200.000000pt" height="1200.000000pt" viewBox="0 0 1200.000000 1200.000000"
 preserveAspectRatio="xMidYMid meet">
<metadata>
Created by potrace 1.11, written by Peter Selinger 2001-2013
</metadata>
<g transform="translate(0.000000,1200.000000) scale(0.100000,-0.100000)"
fill="#000000" stroke="none">
<path d="M10727 10742 c1 -134 -6 -208 -24 -252 -3 -8 -8 -25 -10 -38 -8 -46
-77 -158 -129 -207 -29 -27 -93 -75 -141 -105 -48 -30 -124 -78 -169 -107 -63
-41 -165 -90 -204 -98 -31 -7 -115 -37 -146 -53 -56 -29 -92 -65 -113 -116
-21 -47 -35 -115 -45 -214 -2 -18 -6 -35 -10 -39 -3 -3 -6 -12 -6 -20 0 -15
-51 -95 -57 -89 -2 2 3 21 11 42 8 22 33 112 55 201 22 90 42 167 46 173 13
22 -9 8 -63 -39 -31 -27 -100 -72 -152 -101 -52 -29 -109 -63 -127 -76 -17
-13 -36 -24 -42 -24 -6 0 -11 -4 -11 -10 0 -5 -7 -10 -15 -10 -7 0 -18 -6 -22
-14 -12 -19 -176 -142 -201 -150 -12 -4 -22 -11 -22 -15 0 -9 -158 -68 -200
-75 -14 -2 -45 -9 -70 -16 -25 -7 -96 -14 -159 -15 -130 -1 -117 9 -169 -125
-19 -47 -40 -100 -48 -118 -9 -18 -21 -47 -27 -65 -15 -40 -86 -177 -91 -177
-3 0 7 28 21 63 42 106 62 165 56 171 -4 3 0 6 7 6 7 0 11 3 8 6 -3 3 5 44 19
92 13 48 26 94 28 102 2 8 6 29 10 45 8 33 3 29 -34 -20 -49 -66 -113 -122
-187 -165 -75 -43 -230 -103 -290 -113 -16 -3 -47 -9 -69 -15 -22 -6 -62 -13
-90 -17 -27 -3 -59 -8 -69 -11 -10 -4 -35 -8 -55 -9 -20 -2 -38 -4 -41 -6 -3
-1 -14 -2 -25 -3 -35 -3 -149 -18 -170 -23 -11 -2 -29 -6 -40 -7 -11 -2 -20
-4 -20 -6 0 -1 -11 -3 -25 -5 -14 -1 -41 -6 -60 -9 -19 -4 -46 -8 -60 -10 -14
-2 -59 -8 -100 -15 -41 -6 -102 -13 -135 -16 -33 -3 -76 -8 -95 -10 -19 -3
-62 -8 -95 -10 -66 -6 -87 -8 -190 -20 -38 -5 -81 -10 -95 -11 -14 -1 -26 -3
-27 -4 -2 -1 -16 -4 -33 -5 -16 -1 -31 -3 -32 -4 -2 -1 -19 -4 -38 -6 -19 -2
-46 -6 -60 -9 -14 -4 -42 -9 -62 -11 -21 -2 -57 -9 -80 -16 -24 -6 -53 -13
-65 -15 -12 -2 -34 -9 -48 -14 -14 -5 -29 -9 -33 -8 -4 1 -14 -1 -22 -4 -8 -3
-43 -16 -78 -28 -35 -12 -80 -29 -100 -37 -20 -9 -41 -17 -47 -19 -5 -1 -34
-15 -62 -33 -29 -17 -53 -28 -53 -24 0 3 -8 -1 -17 -9 -10 -9 -34 -23 -53 -33
-118 -59 -401 -305 -511 -444 -76 -95 -82 -100 -92 -94 -6 3 -7 1 -3 -6 6 -9
-24 -65 -44 -81 -22 -17 -195 -360 -193 -380 1 -3 -10 -25 -23 -50 -13 -25
-24 -48 -24 -51 0 -4 -12 -33 -27 -65 -15 -33 -27 -61 -28 -64 -5 -16 -65
-137 -72 -143 -4 -5 -8 -12 -8 -16 0 -3 -20 -38 -45 -76 -24 -39 -48 -77 -52
-85 -3 -8 -7 -10 -7 -4 -1 18 79 336 94 371 7 17 11 34 7 37 -3 3 0 6 7 6 7 0
10 4 7 9 -8 12 45 145 105 265 45 90 182 308 215 341 7 7 23 28 36 46 13 19
64 88 113 155 124 166 136 185 195 296 37 71 39 86 2 32 -33 -49 -41 -59 -112
-132 -81 -84 -175 -156 -417 -319 -369 -248 -463 -337 -608 -573 -32 -52 -65
-106 -74 -120 -9 -14 -21 -34 -27 -46 -6 -11 -28 -52 -49 -90 -65 -115 -265
-518 -265 -531 0 -7 -4 -13 -10 -13 -5 0 -10 -5 -10 -12 0 -11 -59 -138 -64
-138 -7 0 9 219 19 250 3 10 7 31 9 47 5 35 30 139 63 258 14 50 26 97 28 105
2 8 8 35 15 60 7 25 14 57 16 73 2 15 6 32 9 37 3 6 1 10 -4 10 -6 0 -11 -5
-11 -10 0 -6 -5 -16 -10 -23 -26 -30 -368 -713 -375 -747 -2 -11 -10 -34 -18
-52 -33 -73 -89 -276 -102 -373 -3 -22 -10 -69 -15 -105 -18 -113 -22 -207
-24 -512 0 -164 -2 -298 -4 -298 -7 0 -43 92 -49 123 -3 17 -8 125 -10 240 -3
114 -8 207 -12 207 -6 0 -26 -61 -38 -120 -10 -47 -18 -134 -17 -200 0 -89 10
-234 16 -246 2 -5 6 -27 7 -49 2 -22 9 -73 16 -113 6 -39 8 -72 4 -72 -5 0
-10 8 -11 18 -1 17 -4 33 -8 42 -1 3 -3 13 -5 22 -7 39 -40 126 -62 165 -54
98 -118 137 -215 131 -58 -4 -138 -32 -138 -49 0 -4 -13 -21 -29 -38 -16 -17
-31 -41 -34 -53 -6 -22 -6 -23 9 -3 38 52 65 73 105 79 26 4 46 2 55 -5 8 -6
14 -9 14 -5 0 8 80 -44 80 -53 1 -3 20 -27 43 -53 65 -71 130 -212 144 -313 7
-50 7 -246 -1 -300 -6 -47 -25 -133 -33 -155 -7 -18 -9 -29 -11 -52 -4 -41
-91 0 -116 54 -17 37 -21 56 -37 180 -13 102 -35 144 -81 156 -18 5 -35 8 -37
6 -1 -1 8 -18 22 -36 32 -43 48 -96 52 -171 4 -79 12 -121 30 -164 8 -20 15
-38 15 -41 0 -4 -84 2 -150 12 -39 6 -142 47 -175 69 -68 47 -127 123 -143
187 -16 64 10 190 40 190 5 0 16 7 24 15 9 8 28 15 43 15 46 0 66 -64 48 -155
l-6 -30 30 35 c77 89 93 186 45 278 -16 32 -87 97 -108 101 -86 13 -107 12
-146 -8 -22 -11 -49 -35 -61 -54 -45 -73 -63 -208 -41 -314 5 -26 12 -61 14
-78 8 -44 42 -159 55 -184 7 -12 9 -21 6 -21 -3 0 2 -15 12 -33 9 -17 18 -34
18 -37 10 -42 90 -162 146 -219 42 -42 103 -77 147 -84 61 -9 2 -34 -103 -44
-98 -9 -201 36 -264 116 -91 115 -139 313 -109 450 7 30 6 32 -9 20 -17 -14
-72 -127 -79 -162 -2 -11 -8 -34 -13 -51 -17 -52 -22 -87 -28 -188 -11 -185
41 -294 179 -376 22 -13 47 -25 56 -27 9 -2 18 -4 20 -5 16 -14 143 -23 282
-22 98 2 151 -1 145 -7 -16 -16 -122 -60 -129 -54 -3 3 -11 2 -18 -4 -26 -19
-169 -23 -438 -11 -125 6 -140 0 -45 -18 17 -3 57 -12 90 -20 33 -9 75 -18 94
-20 19 -3 37 -7 42 -10 4 -2 41 -7 81 -10 149 -12 206 -3 306 47 45 23 82 45
82 50 0 5 4 9 10 9 5 0 -10 -39 -34 -87 -52 -104 -103 -217 -111 -243 -1 -5
-17 -40 -51 -115 -7 -16 -23 -55 -34 -85 -11 -30 -25 -64 -30 -75 -5 -11 -37
-94 -70 -185 -34 -91 -65 -174 -70 -185 -18 -40 -69 -187 -76 -222 -7 -36 -23
-73 -31 -74 -29 -5 -102 -10 -123 -9 -82 4 -326 2 -390 -3 -41 -4 -111 -9
-155 -12 -44 -3 -98 -7 -120 -9 -22 -2 -78 -8 -125 -11 -47 -4 -88 -9 -92 -11
-3 -2 -35 -6 -70 -9 -35 -2 -87 -9 -117 -15 -30 -5 -56 -8 -59 -5 -3 3 -11 0
-19 -6 -7 -6 -13 -8 -13 -4 0 5 -8 1 -17 -8 -11 -10 -40 -16 -78 -18 -58 -2
-105 -15 -105 -29 0 -4 -16 -15 -36 -26 -47 -24 -76 -47 -140 -110 -106 -105
-104 -223 7 -324 53 -49 67 -60 75 -60 4 0 15 -6 23 -13 27 -23 282 -126 323
-131 12 -2 55 -12 93 -24 77 -23 226 -61 265 -68 14 -3 43 -10 65 -16 59 -15
73 -17 155 -23 41 -4 83 -8 92 -11 35 -10 66 -15 138 -20 41 -3 84 -11 95 -18
48 -31 173 -39 515 -32 69 1 130 0 135 -3 6 -3 37 -4 70 -2 133 9 529 1 760
-14 39 -2 99 0 135 6 143 22 213 25 315 14 39 -5 106 -7 150 -6 114 4 125 4
170 -3 22 -4 61 -8 87 -10 26 -2 50 -6 55 -8 11 -6 140 -4 147 3 3 2 50 4 105
3 113 -2 135 10 107 54 -7 12 -83 50 -111 56 -5 1 -26 10 -47 18 -53 23 -130
38 -233 43 -157 9 -219 13 -265 19 -25 3 -70 8 -100 11 -30 3 -62 7 -70 10
-40 11 -260 25 -430 27 -111 1 -248 18 -300 39 -17 6 -26 18 -28 35 -1 20 5
28 36 41 20 9 53 17 72 19 19 1 43 5 52 9 9 4 21 5 25 2 4 -2 37 -1 73 3 245
30 356 30 485 0 72 -16 108 -19 320 -25 187 -5 235 -2 235 13 0 9 -5 10 -140
11 -58 1 -148 7 -200 12 -52 6 -117 12 -145 14 -27 2 -50 4 -50 4 0 3 -126 11
-230 15 -60 2 -137 0 -170 -5 -81 -12 -176 -22 -200 -20 -11 0 -51 -4 -90 -9
-71 -11 -110 -15 -225 -26 -59 -6 -110 -24 -66 -24 10 0 30 -8 44 -19 69 -49
163 -87 233 -96 47 -5 295 -27 349 -31 104 -6 208 -14 250 -19 25 -3 86 -7
135 -10 50 -3 130 -10 179 -16 49 -5 91 -7 94 -4 3 2 11 0 19 -7 7 -6 16 -8
19 -5 3 3 25 -1 47 -10 23 -8 50 -16 59 -18 33 -7 139 -48 143 -56 10 -14
-105 -21 -253 -15 -155 7 -234 12 -242 16 -10 4 -247 1 -355 -5 -147 -8 -551
-8 -595 0 -19 3 -201 8 -405 9 -330 3 -451 8 -462 19 -2 2 7 15 19 28 39 43
207 339 193 339 -7 0 47 82 75 114 14 16 40 43 59 60 32 30 111 140 111 155 0
14 83 126 121 163 l38 37 126 -3 c79 -2 122 0 114 6 -14 9 68 5 121 -6 67 -13
115 -18 233 -21 70 -2 131 -6 135 -9 4 -2 70 -7 147 -11 77 -4 167 -9 200 -11
64 -4 208 -21 237 -28 10 -2 21 0 24 5 3 5 23 9 46 9 36 0 39 -2 27 -17 -13
-15 -12 -15 17 0 17 9 35 12 40 8 31 -27 308 -51 606 -53 37 -1 65 -4 63 -8
-3 -4 8 -8 23 -8 43 -1 236 -22 249 -27 7 -2 15 0 18 5 4 6 30 9 58 9 47 -1
48 -2 17 -8 -62 -11 -10 -19 140 -20 79 -1 146 -4 150 -6 12 -7 105 -18 150
-17 25 0 65 -4 90 -9 25 -5 167 -11 315 -13 149 -2 270 -4 270 -5 0 -1 71 -3
158 -5 86 -2 157 -1 157 3 0 10 98 12 105 1 4 -6 -5 -10 -20 -10 -14 0 -24 -4
-21 -9 7 -11 85 -4 101 9 6 5 20 9 30 9 11 1 44 2 73 4 28 2 52 0 52 -5 0 -4
-15 -8 -32 -8 -24 0 -29 -3 -19 -9 8 -5 24 -7 35 -4 12 3 98 10 191 15 162 9
199 10 228 7 15 -2 69 8 117 21 44 12 59 12 40 0 -8 -5 -12 -12 -8 -15 3 -3
12 0 19 7 10 9 53 14 139 15 69 1 157 5 195 9 39 3 84 6 100 5 17 0 55 0 85 1
59 1 92 1 198 0 127 -2 152 0 146 10 -3 5 -17 7 -30 4 -14 -4 -24 -2 -24 4 0
5 6 10 13 11 34 3 76 1 112 -5 26 -4 33 -3 20 2 -17 8 -15 10 15 14 19 3 38 1
41 -4 3 -5 17 -5 33 2 15 5 32 8 37 4 5 -3 9 -1 9 4 0 5 8 9 18 10 26 3 116 4
127 2 6 -1 24 -2 40 -1 23 1 27 3 15 11 -17 11 -22 9 58 15 23 2 66 8 95 14
28 6 63 12 77 15 14 2 43 8 65 12 22 4 52 8 68 7 15 0 27 3 27 7 0 4 10 6 23
6 12 -1 39 6 60 16 20 10 37 16 37 13 0 -2 10 -1 23 4 20 8 98 20 167 26 14 1
41 6 60 11 19 4 46 9 60 9 14 0 52 9 85 20 33 10 62 19 65 20 3 1 37 11 75 23
61 19 101 29 128 31 5 1 6 5 3 10 -3 5 2 11 12 14 9 2 25 8 35 12 13 6 16 3
11 -9 -7 -17 11 -23 21 -7 3 6 27 13 53 17 26 4 64 13 85 20 20 7 37 11 37 9
0 -3 11 0 25 5 14 5 37 12 52 14 14 3 60 22 102 42 42 20 90 38 106 41 17 3
35 6 40 7 6 1 49 23 96 49 47 26 91 47 98 47 6 0 35 22 64 50 28 27 63 54 77
60 33 14 74 80 95 154 51 174 -45 370 -257 528 -26 19 -45 38 -42 40 5 6 -58
38 -74 38 -5 0 -15 6 -21 14 -10 12 -8 13 11 9 13 -3 -4 11 -37 31 -33 20 -67
40 -75 46 -49 32 -115 61 -131 57 -11 -3 -19 -1 -19 4 0 5 -6 9 -14 9 -8 0
-16 3 -18 8 -6 13 -88 53 -97 47 -6 -3 -22 -3 -36 1 -19 5 -23 9 -14 14 12 8
-30 23 -86 32 -11 2 -29 11 -39 20 -19 18 -172 70 -211 73 -114 9 -235 30
-235 40 0 25 -57 34 -210 34 -85 0 -171 5 -190 10 -33 8 -32 9 25 11 69 2 158
0 198 -5 15 -2 27 0 27 4 0 13 -53 35 -112 46 -13 3 -45 9 -73 14 -27 6 -89
12 -137 15 -72 4 -86 2 -81 -10 6 -16 -15 -18 -37 -4 -11 7 -11 10 -2 10 7 0
10 5 7 10 -4 6 -10 8 -15 5 -5 -3 -28 0 -52 6 -24 6 -70 13 -103 14 -33 2 -60
4 -60 5 0 1 -22 3 -49 6 -28 2 -64 8 -82 14 -17 6 -49 13 -70 15 l-39 3 28
-20 c41 -30 31 -58 -18 -48 -5 1 -21 3 -35 5 -14 1 -28 3 -32 4 -4 0 -5 8 -2
16 7 19 -12 20 -23 2 -6 -11 -18 -11 -58 -2 -47 11 -48 12 -22 19 41 12 33 27
-15 27 -24 0 -106 0 -183 1 -77 1 -167 -2 -200 -6 -33 -4 -64 -7 -70 -6 -122
12 -248 20 -363 25 -78 3 -153 10 -166 15 -13 5 -52 6 -87 3 -35 -3 -82 -6
-104 -7 -24 -2 -39 -8 -37 -14 1 -7 -11 -12 -30 -12 -25 0 -29 -3 -18 -10 13
-8 13 -10 -2 -10 -9 0 -19 6 -21 13 -3 7 -6 6 -6 -5 -1 -14 -11 -16 -63 -15
-35 1 -94 -1 -133 -5 -40 -4 -55 -3 -35 1 25 6 28 9 12 10 -13 0 -20 5 -17 11
4 6 -5 9 -19 8 -15 -1 -26 -8 -26 -15 0 -8 -15 -13 -42 -14 -24 -1 -52 -3 -63
-4 -11 -2 -46 -6 -79 -9 -32 -4 -76 -10 -98 -15 -22 -5 -49 -8 -59 -6 -10 2
-21 -1 -24 -6 -4 -5 -10 -7 -15 -4 -5 3 -28 1 -52 -4 -24 -6 -59 -13 -78 -16
-52 -9 -71 -16 -65 -24 2 -5 -7 -13 -21 -20 -30 -13 -37 -14 -29 -2 3 6 -2 9
-12 7 -10 -2 -35 -6 -55 -10 -21 -4 -38 -11 -38 -17 0 -6 7 -6 20 1 11 6 20 7
20 2 0 -13 -39 -22 -45 -12 -6 10 -54 3 -70 -9 -18 -14 -46 -21 -40 -11 4 6
-3 8 -17 6 -13 -3 -32 -5 -43 -5 -15 -1 -17 -3 -7 -10 10 -6 7 -10 -12 -15
-15 -4 -26 -13 -26 -23 0 -9 -3 -13 -7 -10 -3 4 -12 2 -20 -4 -10 -9 -13 -8
-13 0 0 7 -5 9 -12 5 -9 -5 -9 -2 1 9 15 19 8 22 -20 6 -11 -5 -17 -14 -14
-19 3 -4 -8 -11 -25 -15 -32 -7 -38 -17 -17 -32 15 -11 26 -11 52 4 31 16 87
32 123 35 17 1 32 6 32 11 0 4 4 6 9 2 5 -3 12 -1 15 4 6 9 49 19 115 27 18 3
41 9 50 14 10 5 41 12 69 16 28 3 49 10 46 15 -3 5 1 10 8 11 24 2 33 5 61 16
38 16 45 15 21 -3 -16 -12 -16 -14 -3 -15 25 0 79 21 79 31 0 6 21 8 48 6 26
-3 76 -1 112 4 36 4 89 11 118 14 29 4 61 8 72 10 10 2 40 7 67 11 26 3 57 8
68 11 11 2 56 6 100 9 44 3 107 9 140 13 33 5 103 7 155 4 52 -2 178 -6 280
-8 273 -6 396 -11 406 -18 11 -7 195 -21 282 -22 34 0 62 -2 62 -5 0 -3 53 -5
118 -6 162 -1 417 -16 417 -24 0 -1 11 -3 25 -4 22 -2 85 -14 115 -22 38 -9
201 -36 250 -40 33 -3 63 -8 67 -10 4 -3 24 -7 45 -10 52 -7 72 -11 115 -22
20 -5 39 -7 42 -4 4 3 6 0 6 -7 0 -7 3 -10 8 -7 7 4 76 -17 124 -38 9 -4 22
-8 30 -10 7 -1 18 -5 25 -9 6 -4 27 -5 47 -2 19 4 44 2 54 -4 11 -6 34 -13 53
-16 19 -3 51 -15 72 -25 20 -11 37 -18 37 -15 0 2 18 -2 40 -10 22 -8 42 -14
45 -15 3 0 6 0 8 -1 1 0 9 -2 17 -4 8 -2 29 -9 45 -16 17 -7 34 -11 38 -10 4
0 32 -10 63 -24 30 -14 57 -25 61 -25 4 0 14 -7 24 -16 9 -8 23 -17 31 -18 41
-9 118 -46 115 -56 -1 -4 27 -23 63 -42 89 -47 111 -60 134 -81 12 -11 40 -32
62 -49 75 -54 208 -239 220 -304 3 -16 8 -31 12 -34 14 -10 5 -86 -15 -130
-12 -25 -37 -61 -57 -80 -20 -19 -44 -43 -54 -52 -9 -10 -22 -18 -28 -18 -6 0
-17 -7 -24 -15 -16 -19 -137 -85 -156 -85 -8 0 -33 -9 -56 -21 -22 -11 -48
-22 -57 -24 -9 -2 -34 -10 -56 -18 -22 -8 -49 -18 -60 -23 -11 -4 -31 -9 -45
-11 -50 -7 -143 -48 -148 -65 -2 -10 -7 -16 -11 -13 -4 2 -30 -3 -57 -11 -27
-9 -62 -18 -78 -20 -37 -5 -266 -63 -278 -70 -5 -3 -21 -7 -36 -10 -15 -2 -38
-9 -52 -14 -14 -5 -41 -11 -60 -14 -58 -8 -155 -33 -177 -44 -11 -6 -28 -11
-39 -11 -10 0 -37 -2 -59 -6 -75 -11 -180 -27 -205 -31 -14 -3 -47 -7 -75 -10
-27 -3 -52 -9 -55 -13 -7 -12 -250 -35 -350 -33 -154 3 -164 2 -174 -8 -13
-13 -63 -13 -71 0 -4 6 -11 7 -17 4 -6 -4 -27 -8 -47 -10 -79 -8 -126 -13
-126 -14 0 -3 -35 -8 -110 -15 -44 -4 -84 -10 -90 -13 -5 -4 -68 -7 -140 -8
-119 -1 -160 -3 -340 -21 -58 -5 -137 -7 -220 -3 -22 1 -58 -1 -80 -4 -22 -4
-83 -6 -135 -5 -52 0 -286 2 -520 3 -234 2 -470 6 -525 10 -55 4 -131 9 -170
12 -38 2 -125 6 -192 9 -67 2 -164 8 -215 14 -113 13 -242 24 -283 23 -90 -3
-162 -9 -173 -16 -7 -4 -12 -2 -12 3 0 6 -4 11 -10 11 -5 0 -7 -6 -4 -14 4
-10 -2 -12 -23 -8 -15 2 -34 9 -41 15 -7 5 -29 11 -50 13 -49 5 -119 13 -162
18 -82 11 -206 24 -220 24 -8 0 -37 3 -65 6 -27 4 -75 8 -105 11 -30 3 -80 8
-110 11 -30 3 -80 7 -110 9 -30 2 -93 8 -140 14 -47 5 -96 8 -110 7 -14 -1
-29 0 -35 3 -5 3 -39 6 -75 8 -36 1 -70 5 -77 7 -6 3 -13 0 -15 -6 -3 -7 -16
-7 -43 1 -22 6 -57 8 -79 4 -26 -4 -37 -3 -33 4 5 7 -31 10 -106 10 -61 -1
-143 2 -182 6 -78 9 -152 9 -187 1 -13 -3 -27 -5 -33 -5 -14 1 -164 9 -202 10
l-32 1 25 37 c63 93 99 198 110 323 9 115 13 147 24 200 18 86 74 233 165 435
29 65 62 142 75 175 7 19 17 39 21 44 12 14 46 -21 59 -60 10 -28 24 -335 20
-409 -2 -32 -2 -37 4 -105 3 -36 9 -78 15 -92 5 -14 7 -28 5 -31 -10 -10 66
-155 101 -193 39 -44 41 -43 19 17 -24 66 -28 103 -27 229 3 157 3 332 0 472
-1 64 2 120 7 125 20 20 139 -155 139 -204 0 -7 4 -13 8 -13 4 0 6 17 4 37
-11 101 -13 153 -4 159 5 3 30 -15 57 -40 69 -67 130 -115 176 -138 23 -12 42
-20 44 -19 1 1 15 -5 31 -13 54 -28 183 -42 286 -31 80 8 63 25 -50 49 -42 10
-106 30 -135 44 -19 9 -38 16 -41 17 -3 0 -32 17 -65 37 -56 35 -76 51 -161
129 -21 19 -53 44 -71 54 -40 24 -40 29 -2 45 52 22 122 8 228 -45 40 -20 83
-39 95 -42 33 -9 178 -11 207 -3 23 6 22 8 -15 15 -45 9 -160 60 -170 75 -4 6
-11 8 -16 5 -5 -4 -9 -2 -9 3 0 5 -15 15 -32 23 -18 7 -35 15 -38 18 -16 18
-108 55 -170 67 -13 3 -26 7 -28 9 -6 6 140 15 308 18 121 3 178 8 215 20 28
10 73 24 100 33 60 20 218 94 226 106 3 6 8 8 11 6 2 -1 33 16 69 39 35 24 56
43 47 43 -9 0 -19 -4 -23 -9 -4 -8 -87 -40 -120 -47 -5 -1 -32 -7 -58 -13 -27
-6 -52 -9 -57 -6 -5 3 -11 1 -14 -4 -6 -9 -45 -12 -249 -14 -144 -2 -192 5
-116 18 24 4 52 9 61 11 26 4 129 35 173 51 22 8 47 16 55 18 8 2 29 9 45 16
17 7 32 13 35 14 3 0 20 9 37 18 18 10 35 17 38 17 3 0 22 7 43 16 59 25 76
32 86 32 5 0 12 4 15 9 3 5 53 32 111 61 58 30 128 66 155 81 28 15 91 49 140
75 50 27 102 57 116 67 14 10 29 16 33 12 3 -3 6 -2 6 3 0 5 -43 9 -97 9 -54
0 -136 4 -183 9 -115 11 -237 8 -316 -8 -26 -5 -145 -16 -219 -19 -16 -1 -29
3 -29 8 3 22 157 84 228 92 15 2 52 7 81 11 29 5 85 8 124 7 39 0 71 2 71 5 0
3 23 5 51 4 57 -1 254 29 309 46 19 6 44 13 55 15 12 3 48 14 80 25 33 12 65
22 70 23 51 12 320 143 395 193 23 15 44 23 52 18 7 -4 10 -4 6 1 -6 6 53 55
67 55 3 0 37 21 77 47 40 25 104 62 143 80 38 19 97 48 130 65 53 26 145 97
145 112 0 3 14 19 30 34 17 16 30 33 30 37 0 5 10 22 23 39 58 77 201 341 212
390 1 6 7 25 14 41 6 17 14 37 17 45 15 36 115 326 119 340 15 65 150 406 171
430 7 8 12 17 12 20 -2 10 42 89 52 95 6 4 8 11 5 16 -4 5 -1 9 4 9 6 0 11 7
11 15 0 8 3 15 8 15 4 0 18 17 32 37 67 101 212 237 303 284 12 7 24 15 27 19
3 3 43 32 90 64 47 31 110 75 140 97 30 22 78 56 105 74 28 19 75 52 105 74
30 22 70 47 88 56 17 10 32 21 32 25 0 4 24 20 53 35 28 16 54 31 57 34 9 11
128 81 137 81 5 0 18 8 29 18 10 10 22 19 26 20 17 6 66 29 108 52 25 13 47
25 50 25 3 1 30 13 62 27 31 14 67 29 80 33 12 4 28 11 33 15 6 4 28 13 49 20
l39 13 -24 18 c-23 17 -163 90 -184 95 -5 2 -28 10 -50 19 l-40 16 35 -6 c19
-3 58 -7 85 -10 28 -2 66 -7 85 -11 68 -13 215 -12 284 2 100 21 220 81 333
167 54 41 107 83 118 94 11 10 48 42 82 70 34 28 68 56 75 62 48 41 68 57 108
84 25 17 47 34 50 37 3 4 23 19 45 33 218 144 417 312 524 442 44 54 181 261
181 275 0 5 4 10 10 10 5 0 9 3 8 8 -1 4 11 32 27 62 38 72 57 112 88 185 24
57 85 237 91 266 1 8 8 32 14 54 16 57 22 92 39 205 9 69 10 310 0 360 -7 36
-43 165 -53 190 -1 3 -5 15 -9 28 -4 12 -12 22 -17 22 -5 0 -7 4 -4 9 3 5 -1
14 -9 21 -8 7 -15 18 -15 24 -1 6 -15 28 -33 49 l-32 37 2 -148z m-2030 -1968
c-3 -3 -12 -4 -19 -1 -8 3 -5 6 6 6 11 1 17 -2 13 -5z m-42 -14 c-3 -5 -12
-10 -18 -10 -7 0 -6 4 3 10 19 12 23 12 15 0z m-81 -35 c-10 -8 -26 -14 -34
-14 -9 0 -4 6 10 14 33 19 49 19 24 0z m-59 -24 c-6 -5 -46 -24 -90 -42 -44
-18 -82 -36 -85 -39 -3 -3 -12 -6 -20 -8 -8 -2 -37 -15 -65 -29 -27 -13 -51
-25 -52 -25 -16 2 -683 -328 -823 -407 -30 -17 -64 -35 -75 -40 -11 -5 -55
-29 -97 -55 -43 -25 -78 -43 -78 -39 0 3 -8 -1 -17 -9 -34 -31 -195 -118 -206
-111 -6 3 -7 1 -3 -6 4 -6 0 -14 -11 -18 -10 -3 -48 -26 -85 -49 -37 -24 -82
-51 -100 -60 -18 -9 -72 -43 -120 -75 -49 -32 -88 -55 -88 -51 0 4 -4 2 -8 -3
-4 -6 -34 -28 -67 -50 -33 -22 -64 -43 -70 -47 -11 -9 -96 -66 -126 -84 -10
-6 -31 -20 -46 -32 -75 -57 -215 -152 -224 -152 -5 0 -9 -4 -9 -10 0 -5 -12
-16 -27 -24 -16 -8 -44 -28 -63 -45 -19 -17 -38 -31 -41 -31 -6 0 -31 -19
-109 -81 -14 -11 -63 -49 -110 -85 -47 -36 -94 -73 -105 -82 -11 -10 -40 -33
-65 -52 -25 -19 -77 -62 -116 -95 -39 -33 -92 -78 -118 -100 -26 -21 -58 -48
-70 -60 -13 -11 -43 -38 -67 -59 -165 -146 -408 -375 -484 -456 -19 -19 -71
-74 -117 -121 -109 -113 -193 -203 -248 -267 -25 -29 -63 -72 -84 -95 -22 -23
-63 -71 -92 -107 -30 -36 -83 -101 -120 -145 -298 -362 -719 -991 -876 -1308
-11 -22 -22 -37 -24 -34 -8 8 166 355 224 447 9 14 17 31 18 39 2 8 7 17 12
20 5 3 22 30 38 58 16 29 32 53 37 53 4 0 7 6 7 13 0 8 13 33 30 55 16 23 30
44 30 47 0 10 142 220 151 223 5 2 9 9 9 15 0 7 34 57 74 112 41 55 85 115 98
133 28 40 151 198 179 231 11 13 36 44 57 70 38 47 217 257 236 277 6 6 40 44
76 84 161 181 580 590 780 760 47 40 92 80 101 89 9 9 31 27 49 41 18 14 40
32 49 41 9 8 36 31 61 49 25 19 50 40 55 46 6 6 30 26 55 45 25 18 47 36 50
39 3 3 21 17 40 30 19 13 60 44 91 69 32 25 92 71 134 101 43 30 83 61 91 68
7 6 17 12 22 12 6 0 12 4 14 8 3 7 150 112 213 152 13 8 41 27 62 41 32 22
127 84 268 174 17 11 38 24 47 30 10 5 54 33 99 60 45 28 101 61 125 75 24 14
80 46 123 73 44 26 85 47 91 47 5 0 10 5 10 11 0 5 4 8 9 4 5 -3 12 -1 15 4
14 22 799 426 866 446 3 0 44 20 92 43 48 23 90 42 92 42 3 0 29 11 58 24 29
13 87 38 128 55 41 18 84 36 95 42 45 21 231 97 240 98 6 1 6 -2 0 -8z m-2699
-1706 c-43 -42 -81 -73 -87 -70 -5 3 -6 0 -4 -7 3 -8 -9 -24 -27 -38 -18 -13
-38 -31 -44 -39 -28 -38 -142 -149 -148 -144 -3 4 -6 1 -6 -4 0 -6 -46 -58
-102 -116 -93 -94 -202 -211 -329 -351 -24 -27 -62 -68 -84 -91 -22 -23 -59
-64 -82 -91 -22 -27 -54 -63 -70 -81 -38 -43 -56 -64 -143 -168 -41 -49 -78
-92 -81 -95 -7 -6 -161 -196 -199 -245 -14 -18 -52 -68 -85 -111 -81 -106 -77
-102 -127 -164 -23 -30 -56 -75 -73 -100 -16 -25 -33 -46 -37 -48 -4 -2 -22
-27 -40 -55 -18 -29 -38 -58 -46 -65 -7 -8 -19 -27 -27 -43 -9 -16 -20 -29
-26 -29 -6 0 -7 -4 -4 -10 3 -5 2 -10 -3 -10 -4 0 -18 -17 -31 -37 -12 -21
-33 -54 -47 -73 -27 -39 -27 -39 -89 -134 -25 -38 -45 -72 -45 -77 0 -4 -3 -9
-8 -11 -7 -3 -95 -142 -142 -223 -10 -16 -47 -79 -82 -140 -35 -60 -67 -117
-71 -125 -4 -8 -28 -53 -53 -100 -76 -141 -184 -358 -184 -371 0 -7 -6 -20
-13 -28 -7 -9 -26 -47 -41 -86 -31 -78 -36 -89 -67 -160 -20 -47 -109 -306
-113 -332 -2 -14 -97 -160 -127 -194 -69 -81 -101 -108 -137 -115 -16 -3 -35
1 -46 9 -19 14 -19 16 8 118 15 57 29 111 31 119 2 8 10 35 19 60 9 25 19 56
22 69 3 14 7 28 10 33 3 4 7 16 9 25 6 31 132 344 180 448 41 89 115 237 202
405 15 30 31 57 36 58 4 2 7 7 7 12 0 7 30 60 90 160 59 98 289 451 300 460 3
3 16 22 29 43 13 21 28 43 34 50 7 7 28 35 46 62 19 28 38 52 41 55 3 3 46 59
95 125 49 66 91 122 95 125 3 3 30 37 60 75 59 75 153 189 179 217 9 9 21 23
26 30 28 36 123 146 147 171 16 15 28 31 28 36 0 5 4 11 8 13 5 2 55 55 112
118 185 205 659 687 673 682 4 -1 7 5 7 13 0 8 4 15 8 15 4 0 39 30 77 68 39
37 110 103 159 147 49 44 106 96 127 115 22 19 45 40 52 45 31 27 193 170 197
176 8 9 125 99 129 99 2 0 -31 -34 -73 -75z m3500 -2839 c24 -2 48 -6 51 -10
5 -4 -87 -2 -125 4 -2 0 0 5 3 10 4 6 11 8 16 4 5 -3 30 -7 55 -8z m97 -13
c-7 -2 -19 -2 -25 0 -7 3 -2 5 12 5 14 0 19 -2 13 -5z m-3086 -49 c-3 -3 -12
-4 -19 -1 -8 3 -5 6 6 6 11 1 17 -2 13 -5z m-4007 -1719 c25 -4 46 -7 47 -9
10 -10 -137 -516 -184 -636 -3 -8 -7 -22 -9 -30 -1 -8 -12 -51 -23 -95 -11
-44 -23 -92 -26 -107 -4 -23 -8 -26 -23 -18 -46 26 -121 54 -152 56 -19 1 -35
3 -35 4 0 1 -11 4 -24 6 -14 2 -50 11 -80 18 -31 8 -76 17 -101 21 -25 4 -54
9 -65 11 -11 3 -51 9 -88 14 -38 6 -77 15 -88 20 -10 6 -19 9 -19 7 0 -5 -67
11 -165 38 -33 9 -67 18 -76 20 -8 2 -33 11 -55 20 -21 9 -41 16 -44 17 -3 0
-16 5 -30 11 -14 6 -27 11 -30 11 -24 6 -120 51 -120 58 0 4 -6 8 -13 8 -14 0
-78 29 -87 39 -3 3 -21 18 -41 33 -19 14 -44 45 -54 68 -16 36 -17 46 -6 78
12 34 63 92 82 92 4 0 11 9 14 21 4 11 9 18 13 15 3 -4 18 6 34 21 15 15 28
22 28 15 0 -6 22 -1 56 14 30 13 60 22 65 19 5 -4 9 -1 9 5 0 6 4 9 8 6 4 -3
41 4 82 15 64 16 110 25 185 34 11 1 20 3 20 4 0 3 105 14 143 15 17 0 32 4
32 7 0 4 13 5 30 4 16 -1 69 3 117 10 48 8 108 15 133 16 25 1 49 5 54 7 12 7
41 8 201 12 72 2 138 6 149 10 20 7 62 5 136 -5z m-215 -915 c3 -6 -4 -10 -17
-10 -18 0 -20 2 -8 10 19 12 18 12 25 0z"/>
<path d="M5406 4603 c-4 -5 -11 -8 -14 -8 -4 -1 -20 -8 -37 -17 -21 -12 -25
-17 -12 -18 10 0 35 11 55 25 20 14 32 25 26 25 -6 0 -14 -3 -18 -7z"/>
<path d="M7213 4267 c-6 -9 96 -2 105 8 4 3 -17 5 -47 3 -29 -2 -55 -7 -58
-11z"/>
<path d="M9790 4071 c0 -6 24 -17 53 -25 47 -13 87 -17 87 -10 0 9 -45 25 -80
29 -23 2 -45 7 -50 10 -6 3 -10 2 -10 -4z"/>
<path d="M5729 3932 c-25 -15 -76 -44 -113 -65 -63 -37 -93 -67 -79 -80 3 -4
15 -1 27 5 11 6 -7 -18 -41 -52 -35 -35 -63 -67 -63 -72 0 -4 -6 -8 -13 -8
-17 0 -37 -42 -37 -78 0 -15 7 -54 15 -87 28 -110 34 -125 48 -121 7 1 9 1 5
-1 -10 -6 41 -73 55 -73 6 0 0 11 -13 24 -12 14 -20 31 -17 39 3 8 -8 42 -24
75 -17 33 -31 70 -32 81 0 11 -5 17 -10 14 -5 -3 -6 5 -2 18 23 80 29 96 40
119 7 14 33 40 56 58 24 19 56 45 72 58 15 13 27 22 27 18 0 -3 14 4 30 16 22
16 28 25 21 34 -7 9 4 21 39 44 27 18 56 35 65 38 8 3 12 10 9 15 -7 13 -13
11 -65 -19z"/>
<path d="M5843 3953 c-24 -9 -13 -20 22 -20 19 0 35 4 35 9 0 5 -10 6 -21 3
-15 -5 -19 -4 -15 4 7 11 0 13 -21 4z"/>
<path d="M5784 3898 c-10 -16 2 -18 21 -5 16 12 16 14 1 14 -9 0 -19 -4 -22
-9z"/>
<path d="M5456 3740 c-9 -17 -13 -30 -8 -30 10 0 37 48 31 55 -3 2 -13 -9 -23
-25z"/>
<path d="M4368 3662 c-16 -2 -28 -7 -28 -12 0 -10 58 -2 80 10 16 9 13 9 -52
2z"/>
<path d="M7270 3460 c0 -5 7 -10 16 -10 8 0 12 5 9 10 -3 6 -10 10 -16 10 -5
0 -9 -4 -9 -10z"/>
<path d="M5444 3363 c19 -37 52 -74 59 -67 6 7 -54 92 -66 93 -4 1 -1 -11 7
-26z"/>
<path d="M5600 3251 c24 -20 40 -26 40 -16 0 2 -15 12 -32 20 l-33 16 25 -20z"/>
<path d="M5645 3201 c17 -12 37 -21 45 -21 20 0 -16 25 -50 34 -23 7 -23 6 5
-13z"/>
<path d="M5734 3125 c27 -25 56 -45 66 -45 11 0 21 -4 24 -9 8 -12 55 -20 62
-10 2 5 15 3 28 -2 17 -8 29 -8 42 0 21 12 25 11 -66 15 -25 1 -56 9 -70 16
-14 8 -28 13 -32 12 -4 -1 -5 4 -2 12 3 8 -13 20 -47 35 l-53 21 48 -45z"/>
<path d="M5805 3120 c3 -4 21 -11 41 -14 19 -4 42 -10 50 -13 8 -3 14 -1 14 5
0 5 -12 13 -27 18 -40 11 -84 13 -78 4z"/>
<path d="M7121 3114 c-19 -23 -10 -24 24 -3 24 15 26 19 10 19 -11 -1 -26 -8
-34 -16z"/>
<path d="M6969 3076 c-2 -3 -16 -7 -29 -9 -14 -2 -32 -7 -40 -10 -15 -6 -61
-14 -140 -24 -25 -3 -58 -11 -75 -18 l-30 -13 36 -1 c20 -1 55 6 78 13 22 8
60 18 83 21 79 10 129 22 141 34 8 8 7 11 -4 11 -9 0 -18 -2 -20 -4z"/>
<path d="M6183 3038 c-33 -16 -28 -23 17 -23 22 -1 40 2 40 5 0 3 12 7 27 8
15 1 32 7 37 12 14 14 -92 12 -121 -2z"/>
<path d="M6457 3043 c-8 -7 -38 -11 -86 -12 -24 -1 -42 -3 -39 -6 10 -10 98
-13 104 -4 3 5 19 9 36 9 17 0 28 3 24 7 -8 9 -33 13 -39 6z"/>
<path d="M10190 2510 c-9 -6 -10 -10 -3 -10 6 0 15 5 18 10 8 12 4 12 -15 0z"/>
<path d="M4235 2290 c27 -12 35 -12 35 0 0 6 -12 10 -27 9 -25 0 -26 -1 -8 -9z"/>
<path d="M5567 1843 c-2 -2 -35 -6 -73 -8 -38 -3 -87 -8 -109 -12 -47 -8 -164
-13 -255 -12 -122 2 -155 1 -285 -5 -154 -7 -213 -15 -222 -28 -4 -7 122 -8
388 -4 806 15 780 15 823 -1 66 -23 165 -42 249 -47 43 -3 95 -10 115 -15 20
-5 54 -12 74 -15 21 -3 59 -11 85 -17 27 -6 53 -12 58 -13 25 -5 91 -29 98
-35 4 -4 -1 -18 -12 -30 -19 -22 -22 -22 -71 -10 -27 7 -50 16 -50 21 0 13
-65 9 -103 -7 -19 -8 -37 -11 -41 -8 -3 4 -6 1 -6 -5 0 -29 76 -55 160 -55
106 0 211 54 196 101 -5 15 -74 57 -96 57 -3 0 -18 6 -35 12 -32 13 -156 40
-215 47 -19 2 -35 5 -35 6 0 0 -18 3 -40 5 -91 10 -113 14 -180 30 -38 9 -74
18 -80 19 -56 14 -330 38 -338 29z"/>
<path d="M2890 1821 c23 -14 170 -40 170 -29 0 11 -13 15 -65 23 -108 15 -120
16 -105 6z"/>
<path d="M6285 1802 c-33 -7 -42 -22 -13 -22 15 0 30 5 33 11 9 14 4 16 -20
11z"/>
<path d="M2950 1730 c0 -5 5 -10 10 -10 6 0 10 5 10 10 0 6 -4 10 -10 10 -5 0
-10 -4 -10 -10z"/>
<path d="M2951 1690 c-20 -10 -29 -20 -23 -24 6 -3 13 -2 17 4 3 5 14 10 24
10 9 0 26 7 37 15 19 14 19 14 -1 14 -11 -1 -35 -9 -54 -19z"/>
<path d="M5580 1677 c-4 -4 -81 -10 -272 -19 -16 -1 -28 -5 -28 -9 0 -9 82
-37 135 -45 22 -3 43 -8 47 -10 4 -3 40 -7 80 -9 95 -5 160 -13 228 -27 30 -6
62 -12 70 -13 44 -7 80 -18 75 -24 -4 -3 -32 -10 -63 -16 -66 -12 -79 -33 -37
-61 21 -14 54 -18 163 -21 76 -1 142 -3 147 -4 27 -3 145 12 182 24 42 12 42
13 27 35 -8 12 -30 30 -47 39 -45 23 -88 74 -76 89 7 9 5 14 -8 18 -22 6 -84
15 -143 21 -25 3 -61 7 -81 10 -79 13 -391 30 -399 22z"/>
<path d="M6577 1544 c-1 -1 -29 -5 -62 -9 -33 -4 -71 -9 -83 -10 -13 -2 -33
-12 -44 -22 -20 -18 -20 -18 13 -24 19 -3 88 -6 154 -6 128 -1 175 12 175 49
0 10 -3 17 -7 17 -5 -1 -10 0 -13 1 -6 3 -130 6 -133 4z"/>
<path d="M4905 1480 c-3 -5 2 -10 11 -10 10 0 15 -3 11 -6 -3 -4 -27 -6 -52
-6 -38 1 -45 -2 -45 -18 0 -28 4 -35 14 -32 5 2 12 -1 15 -6 3 -5 26 -12 51
-15 44 -7 44 -6 20 8 l-25 16 25 -7 c34 -10 140 -12 140 -3 0 13 -33 20 -41 8
-5 -8 -21 -7 -60 6 -48 16 -51 19 -30 27 12 4 27 6 32 2 5 -3 9 0 9 5 0 6 -9
11 -20 11 -11 0 -20 7 -20 15 0 17 -25 20 -35 5z"/>
<path d="M1705 1444 c-49 -7 -96 -11 -102 -9 -7 2 -13 1 -13 -4 0 -5 -15 -8
-32 -7 -30 2 -98 -7 -156 -20 -13 -2 -20 -9 -17 -14 3 -6 15 -6 29 0 13 5 32
7 42 6 11 -2 23 -1 28 2 5 3 32 6 60 8 55 3 125 11 166 18 22 5 23 4 8 -8 -14
-10 -4 -13 65 -14 80 -2 142 12 132 29 -3 4 -11 6 -18 4 -7 -2 -32 -6 -57 -9
-31 -4 -40 -3 -30 4 8 5 29 10 45 10 23 0 27 3 15 10 -19 12 -52 11 -165 -6z
m80 -14 c-3 -5 -12 -10 -18 -10 -7 0 -6 4 3 10 19 12 23 12 15 0z"/>
<path d="M6563 1443 c-7 -2 -13 -8 -13 -13 0 -7 45 -7 103 -1 5 1 5 6 2 11 -6
10 -70 13 -92 3z"/>
<path d="M6359 1416 c-12 -6 -24 -17 -27 -23 -6 -20 42 -16 69 5 22 19 22 19
1 24 -11 3 -30 1 -43 -6z"/>
<path d="M1962 1398 c6 -18 25 -20 31 -3 5 10 0 15 -14 15 -12 0 -19 -5 -17
-12z"/>
<path d="M1980 1365 c-41 -24 -86 -49 -99 -55 -13 -6 -21 -13 -19 -16 5 -4
152 59 196 84 15 8 18 25 5 29 -4 2 -42 -17 -83 -42z"/>
<path d="M2883 1398 c2 -7 12 -13 22 -13 10 0 20 6 23 13 2 7 -6 12 -23 12
-17 0 -25 -5 -22 -12z"/>
<path d="M4790 1380 c0 -5 5 -10 11 -10 5 0 7 5 4 10 -3 6 -8 10 -11 10 -2 0
-4 -4 -4 -10z"/>
<path d="M2072 1368 c-16 -16 -15 -28 1 -28 7 0 13 9 14 20 2 23 1 24 -15 8z"/>
<path d="M2308 1334 c-3 -2 -39 -6 -80 -8 -41 -2 -80 -6 -86 -10 -6 -3 -32 -8
-59 -10 -91 -7 -162 -26 -174 -48 -13 -23 -14 -22 31 -40 34 -15 95 -15 410
-4 84 3 145 12 163 23 5 3 52 7 105 10 126 5 202 20 202 39 0 8 -3 14 -7 15
-5 0 -17 2 -28 4 -10 2 -64 6 -120 10 -55 3 -131 8 -170 11 -125 11 -183 13
-187 8z"/>
<path d="M4872 1328 c2 -6 10 -14 16 -16 7 -2 10 2 6 12 -7 18 -28 22 -22 4z"/>
<path d="M3406 1313 c-1 -1 -22 -5 -46 -8 -63 -8 -120 -24 -120 -35 0 -22 41
-31 140 -32 93 0 155 19 155 47 0 11 -6 21 -12 21 -7 1 -14 2 -15 4 -4 2 -99
6 -102 3z"/>
<path d="M1387 1288 c-10 -5 -17 -15 -17 -23 0 -10 7 -11 35 -3 40 13 54 36
21 36 -13 0 -30 -5 -39 -10z"/>
<path d="M11047 835 c-9 -8 -33 -15 -54 -15 -47 0 -59 -8 -58 -39 0 -23 3 -24
83 -25 48 -1 82 3 82 9 0 7 3 7 8 0 9 -13 42 -15 42 -3 0 7 5 7 13 1 17 -13
80 -9 85 5 2 7 15 12 28 12 14 0 22 -4 19 -10 -3 -5 2 -10 12 -11 82 -4 108
-2 108 9 0 7 5 12 10 11 6 0 10 -6 9 -12 -1 -9 64 -12 259 -11 l260 0 9 23 c4
13 6 27 2 32 -8 14 -54 11 -54 -3 0 -10 -2 -10 -8 0 -11 16 -62 12 -62 -5 0
-7 -7 -13 -15 -13 -8 0 -15 6 -15 13 0 10 -26 14 -110 14 -85 1 -110 -1 -110
-11 0 -8 -11 -16 -25 -18 -20 -4 -23 -3 -14 8 15 18 3 34 -26 34 -13 0 -25 5
-27 11 -3 8 -9 7 -19 -4 -18 -17 -68 -25 -87 -14 -6 5 -12 5 -12 0 0 -4 -13
-8 -29 -8 -16 0 -27 3 -24 8 2 4 -6 7 -17 7 -16 0 -20 -4 -16 -16 4 -12 0 -15
-17 -12 -14 2 -21 9 -21 21 1 10 -5 17 -17 17 -10 0 -19 -6 -19 -12 0 -9 -18
-13 -63 -12 -86 2 -89 3 -82 13 10 17 -13 22 -28 6z"/>
</g>
</svg>
